G04 DipTrace 3.1.0.1*
G04 MSP430FR2311BreakOutv3.gbl*
%MOIN*%
G04 #@! TF.FileFunction,Copper,L2,Bot*
G04 #@! TF.Part,Single*
G04 #@! TA.AperFunction,Conductor*
%ADD14C,0.012992*%
G04 #@! TA.AperFunction,ComponentPad*
%ADD16R,0.066929X0.066929*%
%ADD17C,0.066929*%
G04 #@! TA.AperFunction,ViaPad*
%ADD19C,0.04*%
%FSLAX26Y26*%
G04*
G70*
G90*
G75*
G01*
G04 Bottom*
%LPD*%
X1343278Y1007255D2*
D14*
X1098278D1*
X993278Y1112255D1*
X1016121Y812770D2*
X1110605Y907255D1*
X1343278D1*
X969853Y528318D2*
X590322D1*
X564337Y554302D1*
Y728314D1*
X643278Y807255D1*
X1237688Y617888D2*
X1248322Y607255D1*
X1343278D1*
X1055609Y656467D2*
X1106396Y707255D1*
X1343278D1*
X722215Y1307255D2*
X643278D1*
X801192Y850877D2*
Y1049341D1*
X643278Y1207255D1*
X983357Y733239D2*
X943310Y773286D1*
X787688D1*
X761703Y799270D1*
Y888829D1*
X643278Y1007255D1*
X735719Y707648D2*
Y814814D1*
X643278Y907255D1*
X1126664Y1046743D2*
Y1281270D1*
X1152648Y1307255D1*
X1343278D1*
X1198199Y1054306D2*
Y1181269D1*
X1224184Y1207255D1*
X1343278D1*
D19*
X993278Y1112255D3*
X1016121Y812770D3*
X969853Y528318D3*
X1237688Y617888D3*
X1055609Y656467D3*
X722215Y1307255D3*
X801192Y850877D3*
X983357Y733239D3*
X735719Y707648D3*
X1126664Y1046743D3*
X1198199Y1054306D3*
D16*
X1343278Y607255D3*
D17*
Y707255D3*
Y807255D3*
Y907255D3*
Y1007255D3*
Y1107255D3*
Y1207255D3*
Y1307255D3*
D16*
X643278D3*
D17*
Y1207255D3*
Y1107255D3*
Y1007255D3*
Y907255D3*
Y807255D3*
Y707255D3*
Y607255D3*
M02*
