G04 DipTrace 3.1.0.1*
G04 MSP430FR2311BreakOutv3.gtl*
%MOIN*%
G04 #@! TF.FileFunction,Copper,L1,Top*
G04 #@! TF.Part,Single*
G04 #@! TA.AperFunction,Conductor*
%ADD14C,0.012992*%
%ADD15R,0.051181X0.059055*%
G04 #@! TA.AperFunction,ComponentPad*
%ADD16R,0.066929X0.066929*%
%ADD17C,0.066929*%
%ADD18R,0.070866X0.015748*%
G04 #@! TA.AperFunction,ViaPad*
%ADD19C,0.04*%
%ADD34C,0.003088*%
%FSLAX26Y26*%
G04*
G70*
G90*
G75*
G01*
G04 Top*
%LPD*%
X1343278Y1107255D2*
D14*
X1264341D1*
X1238357Y1133239D1*
Y1182255D1*
X1193081D1*
X1068081Y907255D2*
Y760207D1*
X1143278D1*
X1068081Y1032255D2*
Y907255D1*
X1193081Y1182255D2*
Y1107255D1*
X1094066D1*
X1068081Y1081270D1*
Y1032255D1*
X1118278Y1182255D2*
X993278D1*
X918081D1*
X1343278Y1007255D2*
X1224184Y888160D1*
Y760601D1*
X1198199Y734617D1*
X1143278D1*
X993278Y1182255D2*
Y1112255D1*
Y1032255D1*
X843278Y1182255D2*
Y933243D1*
X869266Y907255D1*
X993278D1*
X1016121Y812770D2*
X1022845Y806046D1*
Y735010D1*
X1048829Y709026D1*
X1143278D1*
X993278Y907255D2*
X1002617D1*
Y826274D1*
X1016121Y812770D1*
X643278Y607255D2*
X828904D1*
X853904Y632255D1*
X914932D1*
X643278Y707255D2*
X696231D1*
Y683829D1*
X722215Y657845D1*
X914932D1*
X969853Y528318D2*
Y683436D1*
X914932D1*
X1237688Y617888D2*
X1143278D1*
Y632255D1*
X1055609Y656467D2*
X1123526D1*
X1124904Y657845D1*
X1143278D1*
X1343278Y807255D2*
X1219459Y683436D1*
X1143278D1*
X722215Y1307255D2*
Y837373D1*
X748199Y811388D1*
X914924D1*
X801192Y850877D2*
X969845D1*
Y785798D1*
X914932D1*
X643278Y1107255D2*
X696231Y1054302D1*
Y786192D1*
X722215Y760207D1*
X914932D1*
X983357Y733239D2*
X934684D1*
X933306Y734617D1*
X914932D1*
X735719Y707648D2*
X895180D1*
X896558Y709026D1*
X914932D1*
X1126664Y1046743D2*
Y811388D1*
X1143278D1*
X1198199Y1054306D2*
Y785798D1*
X1143278D1*
D19*
X993278Y1112255D3*
X1016121Y812770D3*
X969853Y528318D3*
X1237688Y617888D3*
X1055609Y656467D3*
X722215Y1307255D3*
X801192Y850877D3*
X983357Y733239D3*
X735719Y707648D3*
X1126664Y1046743D3*
X1198199Y1054306D3*
D15*
X1118278Y1182255D3*
X1193081D3*
X993278Y1032255D3*
X1068081D3*
X993278Y907255D3*
X1068081D3*
X843278Y1182255D3*
X918081D3*
D16*
X1343278Y607255D3*
D17*
Y707255D3*
Y807255D3*
Y907255D3*
Y1007255D3*
Y1107255D3*
Y1207255D3*
Y1307255D3*
D16*
X643278D3*
D17*
Y1207255D3*
Y1107255D3*
Y1007255D3*
Y907255D3*
Y807255D3*
Y707255D3*
Y607255D3*
D18*
X1143278Y632255D3*
Y657845D3*
Y683436D3*
Y709026D3*
Y734617D3*
Y760207D3*
Y785798D3*
Y811388D3*
X914924D3*
X914932Y785798D3*
Y760207D3*
Y734617D3*
Y709026D3*
Y683436D3*
Y657845D3*
Y632255D3*
X1535309Y415466D2*
D34*
Y435562D1*
X1548707Y415466D1*
Y435562D1*
X1529134Y415466D2*
X1528183Y416417D1*
X1527210Y415466D1*
X1528183Y414493D1*
X1529134Y415466D1*
X1528183Y422165D2*
Y435562D1*
X1509539Y425039D2*
X1511462Y423115D1*
X1513385Y422165D1*
X1516237D1*
X1518161Y423115D1*
X1520062Y425039D1*
X1521035Y427913D1*
Y429814D1*
X1520062Y432688D1*
X1518161Y434589D1*
X1516237Y435562D1*
X1513385D1*
X1511462Y434589D1*
X1509539Y432688D1*
X1503363Y415466D2*
Y435562D1*
X1493790Y422165D2*
X1503363Y431737D1*
X1499538Y427913D2*
X1492840Y435562D1*
X1451903D2*
X1459574Y415466D1*
X1467223Y435562D1*
X1464349Y428863D2*
X1454777D1*
X1445727Y422165D2*
Y435562D1*
Y425989D2*
X1442853Y423115D1*
X1440930Y422165D1*
X1438078D1*
X1436154Y423115D1*
X1435204Y425989D1*
Y435562D1*
Y425989D2*
X1432330Y423115D1*
X1430406Y422165D1*
X1427554D1*
X1425631Y423115D1*
X1424658Y425989D1*
Y435562D1*
X1418483Y415466D2*
Y435562D1*
Y425039D2*
X1416559Y423115D1*
X1414658Y422165D1*
X1411784D1*
X1409883Y423115D1*
X1407959Y425039D1*
X1407009Y427913D1*
Y429814D1*
X1407959Y432688D1*
X1409883Y434589D1*
X1411784Y435562D1*
X1414658D1*
X1416559Y434589D1*
X1418483Y432688D1*
X1400833Y422165D2*
Y435562D1*
Y427913D2*
X1399860Y425039D1*
X1397959Y423115D1*
X1396036Y422165D1*
X1393162D1*
X1382211D2*
X1384112Y423115D1*
X1386035Y425039D1*
X1386986Y427913D1*
Y429814D1*
X1386035Y432688D1*
X1384112Y434589D1*
X1382211Y435562D1*
X1379337D1*
X1377413Y434589D1*
X1375512Y432688D1*
X1374539Y429814D1*
Y427913D1*
X1375512Y425039D1*
X1377413Y423115D1*
X1379337Y422165D1*
X1382211D1*
X1357840Y425039D2*
X1358791Y423115D1*
X1361665Y422165D1*
X1364539D1*
X1367413Y423115D1*
X1368363Y425039D1*
X1367413Y426940D1*
X1365489Y427913D1*
X1360714Y428863D1*
X1358791Y429814D1*
X1357840Y431737D1*
Y432688D1*
X1358791Y434589D1*
X1361665Y435562D1*
X1364539D1*
X1367413Y434589D1*
X1368363Y432688D1*
X1351664Y427913D2*
X1340190D1*
Y425989D1*
X1341141Y424066D1*
X1342092Y423115D1*
X1344015Y422165D1*
X1346889D1*
X1348790Y423115D1*
X1350714Y425039D1*
X1351664Y427913D1*
Y429814D1*
X1350714Y432688D1*
X1348790Y434589D1*
X1346889Y435562D1*
X1344015D1*
X1342092Y434589D1*
X1340190Y432688D1*
X1548707Y500039D2*
X1540107D1*
X1537233Y499066D1*
X1536260Y498115D1*
X1535309Y496214D1*
Y494291D1*
X1536260Y492389D1*
X1537233Y491417D1*
X1540107Y490466D1*
X1548707D1*
Y510562D1*
X1542008Y500039D2*
X1535309Y510562D1*
X1529134Y502913D2*
X1517660D1*
Y500989D1*
X1518610Y499066D1*
X1519561Y498115D1*
X1521484Y497165D1*
X1524358D1*
X1526260Y498115D1*
X1528183Y500039D1*
X1529134Y502913D1*
Y504814D1*
X1528183Y507688D1*
X1526260Y509589D1*
X1524358Y510562D1*
X1521484D1*
X1519561Y509589D1*
X1517660Y507688D1*
X1511484Y497165D2*
X1505736Y510562D1*
X1500010Y497165D1*
X1474394Y494313D2*
X1472471Y493340D1*
X1469597Y490488D1*
Y510562D1*
X1533408Y473062D2*
Y452966D1*
X1541057Y473062D1*
X1548707Y452966D1*
Y473062D1*
X1513835Y455840D2*
X1515736Y453917D1*
X1518610Y452966D1*
X1522435D1*
X1525309Y453917D1*
X1527232Y455840D1*
Y457741D1*
X1526260Y459665D1*
X1525309Y460615D1*
X1523408Y461566D1*
X1517660Y463489D1*
X1515736Y464440D1*
X1514786Y465413D1*
X1513835Y467314D1*
Y470188D1*
X1515736Y472089D1*
X1518610Y473062D1*
X1522435D1*
X1525309Y472089D1*
X1527232Y470188D1*
X1507659Y463489D2*
X1499037D1*
X1496185Y462539D1*
X1495213Y461566D1*
X1494262Y459665D1*
Y456791D1*
X1495213Y454889D1*
X1496185Y453917D1*
X1499037Y452966D1*
X1507659D1*
Y473062D1*
X1478514D2*
Y452988D1*
X1488086Y466363D1*
X1473738D1*
X1465639Y452988D2*
X1455138D1*
X1460864Y460637D1*
X1457990D1*
X1456089Y461588D1*
X1455138Y462539D1*
X1454165Y465413D1*
Y467314D1*
X1455138Y470188D1*
X1457039Y472111D1*
X1459913Y473062D1*
X1462787D1*
X1465639Y472111D1*
X1466590Y471139D1*
X1467563Y469237D1*
X1442242Y452988D2*
X1445116Y453939D1*
X1447039Y456813D1*
X1447990Y461588D1*
Y464462D1*
X1447039Y469237D1*
X1445116Y472111D1*
X1442242Y473062D1*
X1440340D1*
X1437466Y472111D1*
X1435565Y469237D1*
X1434592Y464462D1*
Y461588D1*
X1435565Y456813D1*
X1437466Y453939D1*
X1440340Y452988D1*
X1442242D1*
X1435565Y456813D2*
X1447039Y469237D1*
X1415970Y452966D2*
X1428417D1*
Y473062D1*
Y462539D2*
X1420767D1*
X1409794D2*
X1401194D1*
X1398320Y461566D1*
X1397348Y460615D1*
X1396397Y458714D1*
Y456791D1*
X1397348Y454889D1*
X1398320Y453917D1*
X1401194Y452966D1*
X1409794D1*
Y473062D1*
X1403096Y462539D2*
X1396397Y473062D1*
X1389248Y457763D2*
Y456813D1*
X1388298Y454889D1*
X1387347Y453939D1*
X1385424Y452988D1*
X1381599D1*
X1379698Y453939D1*
X1378747Y454889D1*
X1377774Y456813D1*
Y458714D1*
X1378747Y460637D1*
X1380649Y463489D1*
X1390221Y473062D1*
X1376824D1*
X1368725Y452988D2*
X1358224D1*
X1363949Y460637D1*
X1361075D1*
X1359174Y461588D1*
X1358224Y462539D1*
X1357251Y465413D1*
Y467314D1*
X1358224Y470188D1*
X1360125Y472111D1*
X1362999Y473062D1*
X1365873D1*
X1368725Y472111D1*
X1369675Y471139D1*
X1370648Y469237D1*
X1351075Y456813D2*
X1349152Y455840D1*
X1346278Y452988D1*
Y473062D1*
X1340102Y456813D2*
X1338179Y455840D1*
X1335305Y452988D1*
Y473062D1*
X1309689Y452966D2*
Y473062D1*
X1301067D1*
X1298192Y472089D1*
X1297242Y471139D1*
X1296291Y469237D1*
Y466363D1*
X1297242Y464440D1*
X1298192Y463489D1*
X1301067Y462539D1*
X1298192Y461566D1*
X1297242Y460615D1*
X1296291Y458714D1*
Y456791D1*
X1297242Y454889D1*
X1298192Y453917D1*
X1301066Y452966D1*
X1309689D1*
Y462539D2*
X1301067D1*
X1290116Y459665D2*
Y473062D1*
Y465413D2*
X1289143Y462539D1*
X1287241Y460615D1*
X1285318Y459665D1*
X1282444D1*
X1276268Y465413D2*
X1264794D1*
Y463489D1*
X1265745Y461566D1*
X1266696Y460615D1*
X1268619Y459665D1*
X1271493D1*
X1273394Y460615D1*
X1275318Y462539D1*
X1276268Y465413D1*
Y467314D1*
X1275318Y470188D1*
X1273394Y472089D1*
X1271493Y473062D1*
X1268619D1*
X1266696Y472089D1*
X1264794Y470188D1*
X1247145Y459665D2*
Y473062D1*
Y462539D2*
X1249046Y460615D1*
X1250969Y459665D1*
X1253821D1*
X1255745Y460615D1*
X1257646Y462539D1*
X1258619Y465413D1*
Y467314D1*
X1257646Y470188D1*
X1255745Y472089D1*
X1253821Y473062D1*
X1250969D1*
X1249046Y472089D1*
X1247145Y470188D1*
X1240969Y452966D2*
Y473062D1*
X1231396Y459665D2*
X1240969Y469237D1*
X1237144Y465413D2*
X1230446Y473062D1*
X1219495Y459665D2*
X1221396Y460615D1*
X1223319Y462539D1*
X1224270Y465413D1*
Y467314D1*
X1223319Y470188D1*
X1221396Y472089D1*
X1219495Y473062D1*
X1216621D1*
X1214697Y472089D1*
X1212796Y470188D1*
X1211823Y467314D1*
Y465413D1*
X1212796Y462539D1*
X1214697Y460615D1*
X1216621Y459665D1*
X1219495D1*
X1205648D2*
Y469237D1*
X1204697Y472089D1*
X1202774Y473062D1*
X1199900D1*
X1197998Y472089D1*
X1195124Y469237D1*
Y459665D2*
Y473062D1*
X1186075Y452966D2*
Y469237D1*
X1185124Y472089D1*
X1183201Y473062D1*
X1181299D1*
X1188949Y459665D2*
X1182250D1*
M02*
